<?xml version="1.0" encoding="UTF-8" standalone="no"?><svg xmlns="http://www.w3.org/2000/svg" xmlns:xlink="http://www.w3.org/1999/xlink" contentStyleType="text/css" height="449px" preserveAspectRatio="none" style="width:525px;height:449px;background:#FFFFFF;" version="1.1" viewBox="0 0 525 449" width="525px" zoomAndPan="magnify"><defs/><g><!--MD5=[48b95ceadff3676bf94239939a3d382d]
class SortingStrategy--><g id="elem_SortingStrategy"><rect codeLine="2" fill="#F1F1F1" height="86.1358" id="SortingStrategy" rx="2.5" ry="2.5" style="stroke:#181818;stroke-width:0.5;" width="242" x="141" y="210"/><ellipse cx="208.25" cy="226" fill="#A9DCDF" rx="11" ry="11" style="stroke:#181818;stroke-width:1.0;"/><path d="M203.4219,231.75 L206.7656,219.5625 L209.9063,219.5625 L213.2813,231.75 L210.8125,231.75 L210.0781,228.7344 L206.5625,228.7344 L205.8125,231.75 L203.4219,231.75 Z M207.8281,223.7031 L207.0781,226.7031 L209.5938,226.7031 L208.875,223.7031 Q208.7344,223.125 208.6094,222.5781 Q208.4844,222.0156 208.3438,221.4375 Q208.2344,222.0156 208.0938,222.5781 Q207.9531,223.125 207.8281,223.7031 Z " fill="#000000"/><text fill="#000000" font-family="sans-serif" font-size="14" font-style="italic" lengthAdjust="spacing" textLength="99" x="228.75" y="231.432">SortingStrategy</text><line style="stroke:#181818;stroke-width:0.5;" x1="142" x2="382" y1="242" y2="242"/><line style="stroke:#181818;stroke-width:0.5;" x1="142" x2="382" y1="250" y2="250"/><ellipse cx="152" cy="265.034" fill="#84BE84" rx="3" ry="3" style="stroke:#038048;stroke-width:1.0;"/><text fill="#000000" font-family="sans-serif" font-size="14" lengthAdjust="spacing" textLength="168" x="161" y="268.9659">virtual ~SortingStrategy()</text><ellipse cx="152" cy="284.1019" fill="#84BE84" rx="3" ry="3" style="stroke:#038048;stroke-width:1.0;"/><text fill="#000000" font-family="sans-serif" font-size="14" font-style="italic" lengthAdjust="spacing" textLength="216" x="161" y="288.0339">virtual void Sort(vector&lt;int&gt;&amp;) = 0</text></g><!--MD5=[a8f5d0ac045a7a349f58523d651da160]
class BubbleSortStrategy--><g id="elem_BubbleSortStrategy"><rect codeLine="7" fill="#F1F1F1" height="67.0679" id="BubbleSortStrategy" rx="2.5" ry="2.5" style="stroke:#181818;stroke-width:0.5;" width="238" x="7" y="375"/><ellipse cx="56.25" cy="391" fill="#ADD1B2" rx="11" ry="11" style="stroke:#181818;stroke-width:1.0;"/><path d="M55.7188,397.9219 Q53.9688,397.9219 52.8281,397.1875 Q51.7031,396.4375 51.1406,395.0938 Q50.5938,393.7344 50.5938,391.9375 Q50.5938,389.9063 51.25,388.4531 Q51.9063,387 53.1875,386.2188 Q54.4688,385.4375 56.3438,385.4375 Q57.2344,385.4375 57.9063,385.625 Q58.5781,385.7969 59.2656,386.1406 L58.4531,388.1563 Q57.8281,387.8438 57.2813,387.7188 Q56.75,387.5938 56.2656,387.5938 Q55.0938,387.5938 54.3906,388.125 Q53.6875,388.6563 53.3906,389.6094 Q53.0938,390.5625 53.0938,391.8281 Q53.0938,393.8438 53.8125,394.8125 Q54.5313,395.7656 56.125,395.7656 Q56.7188,395.7656 57.3438,395.6094 Q57.9688,395.4531 58.7969,395.0781 L58.7969,397.2969 Q58.0625,397.6094 57.2656,397.7656 Q56.4844,397.9219 55.7188,397.9219 Z " fill="#000000"/><text fill="#000000" font-family="sans-serif" font-size="14" lengthAdjust="spacing" textLength="131" x="76.75" y="396.432">BubbleSortStrategy</text><line style="stroke:#181818;stroke-width:0.5;" x1="8" x2="244" y1="407" y2="407"/><line style="stroke:#181818;stroke-width:0.5;" x1="8" x2="244" y1="415" y2="415"/><ellipse cx="18" cy="430.034" fill="#84BE84" rx="3" ry="3" style="stroke:#038048;stroke-width:1.0;"/><text fill="#000000" font-family="sans-serif" font-size="14" lengthAdjust="spacing" textLength="212" x="27" y="433.9659">void Sort(vector&lt;int&gt;&amp;) override</text></g><!--MD5=[28c50a4a8c192ba72c5b0fe2d78e666d]
class QuickSortStrategy--><g id="elem_QuickSortStrategy"><rect codeLine="11" fill="#F1F1F1" height="67.0679" id="QuickSortStrategy" rx="2.5" ry="2.5" style="stroke:#181818;stroke-width:0.5;" width="238" x="280" y="375"/><ellipse cx="334.25" cy="391" fill="#ADD1B2" rx="11" ry="11" style="stroke:#181818;stroke-width:1.0;"/><path d="M333.7188,397.9219 Q331.9688,397.9219 330.8281,397.1875 Q329.7031,396.4375 329.1406,395.0938 Q328.5938,393.7344 328.5938,391.9375 Q328.5938,389.9063 329.25,388.4531 Q329.9063,387 331.1875,386.2188 Q332.4688,385.4375 334.3438,385.4375 Q335.2344,385.4375 335.9063,385.625 Q336.5781,385.7969 337.2656,386.1406 L336.4531,388.1563 Q335.8281,387.8438 335.2813,387.7188 Q334.75,387.5938 334.2656,387.5938 Q333.0938,387.5938 332.3906,388.125 Q331.6875,388.6563 331.3906,389.6094 Q331.0938,390.5625 331.0938,391.8281 Q331.0938,393.8438 331.8125,394.8125 Q332.5313,395.7656 334.125,395.7656 Q334.7188,395.7656 335.3438,395.6094 Q335.9688,395.4531 336.7969,395.0781 L336.7969,397.2969 Q336.0625,397.6094 335.2656,397.7656 Q334.4844,397.9219 333.7188,397.9219 Z " fill="#000000"/><text fill="#000000" font-family="sans-serif" font-size="14" lengthAdjust="spacing" textLength="121" x="354.75" y="396.432">QuickSortStrategy</text><line style="stroke:#181818;stroke-width:0.5;" x1="281" x2="517" y1="407" y2="407"/><line style="stroke:#181818;stroke-width:0.5;" x1="281" x2="517" y1="415" y2="415"/><ellipse cx="291" cy="430.034" fill="#84BE84" rx="3" ry="3" style="stroke:#038048;stroke-width:1.0;"/><text fill="#000000" font-family="sans-serif" font-size="14" lengthAdjust="spacing" textLength="212" x="300" y="433.9659">void Sort(vector&lt;int&gt;&amp;) override</text></g><!--MD5=[6754354365917abf8f1a56af1b7e344c]
class Context--><g id="elem_Context"><rect codeLine="15" fill="#F1F1F1" height="124.2717" id="Context" rx="2.5" ry="2.5" style="stroke:#181818;stroke-width:0.5;" width="338" x="93" y="7"/><ellipse cx="232.25" cy="23" fill="#ADD1B2" rx="11" ry="11" style="stroke:#181818;stroke-width:1.0;"/><path d="M231.7188,29.9219 Q229.9688,29.9219 228.8281,29.1875 Q227.7031,28.4375 227.1406,27.0938 Q226.5938,25.7344 226.5938,23.9375 Q226.5938,21.9063 227.25,20.4531 Q227.9063,19 229.1875,18.2188 Q230.4688,17.4375 232.3438,17.4375 Q233.2344,17.4375 233.9063,17.625 Q234.5781,17.7969 235.2656,18.1406 L234.4531,20.1563 Q233.8281,19.8438 233.2813,19.7188 Q232.75,19.5938 232.2656,19.5938 Q231.0938,19.5938 230.3906,20.125 Q229.6875,20.6563 229.3906,21.6094 Q229.0938,22.5625 229.0938,23.8281 Q229.0938,25.8438 229.8125,26.8125 Q230.5313,27.7656 232.125,27.7656 Q232.7188,27.7656 233.3438,27.6094 Q233.9688,27.4531 234.7969,27.0781 L234.7969,29.2969 Q234.0625,29.6094 233.2656,29.7656 Q232.4844,29.9219 231.7188,29.9219 Z " fill="#000000"/><text fill="#000000" font-family="sans-serif" font-size="14" lengthAdjust="spacing" textLength="51" x="252.75" y="28.432">Context</text><line style="stroke:#181818;stroke-width:0.5;" x1="94" x2="430" y1="39" y2="39"/><rect fill="none" height="6" style="stroke:#C82930;stroke-width:1.0;" width="6" x="101" y="51.034"/><text fill="#000000" font-family="sans-serif" font-size="14" lengthAdjust="spacing" textLength="254" x="113" y="57.9659">unique_ptr&lt;SortingStrategy&gt; strategy</text><line style="stroke:#181818;stroke-width:0.5;" x1="94" x2="430" y1="66.0679" y2="66.0679"/><ellipse cx="104" cy="81.1019" fill="#84BE84" rx="3" ry="3" style="stroke:#038048;stroke-width:1.0;"/><text fill="#000000" font-family="sans-serif" font-size="14" lengthAdjust="spacing" textLength="254" x="113" y="85.0339">Context(unique_ptr&lt;SortingStrategy&gt;)</text><ellipse cx="104" cy="100.1698" fill="#84BE84" rx="3" ry="3" style="stroke:#038048;stroke-width:1.0;"/><text fill="#000000" font-family="sans-serif" font-size="14" lengthAdjust="spacing" textLength="312" x="113" y="104.1018">void SetStrategy(unique_ptr&lt;SortingStrategy&gt;)</text><ellipse cx="104" cy="119.2377" fill="#84BE84" rx="3" ry="3" style="stroke:#038048;stroke-width:1.0;"/><text fill="#000000" font-family="sans-serif" font-size="14" lengthAdjust="spacing" textLength="183" x="113" y="123.1697">void SortData(vector&lt;int&gt;&amp;)</text></g><!--MD5=[bc4b105deaa892e20cfb14f0057424ad]
reverse link SortingStrategy to BubbleSortStrategy--><g id="link_SortingStrategy_BubbleSortStrategy"><path codeLine="22" d="M210.6,312.01 C191.87,333.15 171.35,356.31 155.21,374.53 " fill="none" id="SortingStrategy-backto-BubbleSortStrategy" style="stroke:#181818;stroke-width:1.0;"/><polygon fill="none" points="204.97,307.68,223.48,297.35,215.45,316.96,204.97,307.68" style="stroke:#181818;stroke-width:1.0;"/><text fill="#000000" font-family="sans-serif" font-size="13" lengthAdjust="spacing" textLength="68" x="200" y="340.897">Inheritance</text></g><!--MD5=[34ddcf2128225a3ed306e3ea323a47a2]
reverse link SortingStrategy to QuickSortStrategy--><g id="link_SortingStrategy_QuickSortStrategy"><path codeLine="23" d="M313.77,312.01 C332.64,333.15 353.32,356.31 369.57,374.53 " fill="none" id="SortingStrategy-backto-QuickSortStrategy" style="stroke:#181818;stroke-width:1.0;"/><polygon fill="none" points="308.89,316.93,300.8,297.35,319.34,307.61,308.89,316.93" style="stroke:#181818;stroke-width:1.0;"/><text fill="#000000" font-family="sans-serif" font-size="13" lengthAdjust="spacing" textLength="68" x="343" y="340.897">Inheritance</text></g><!--MD5=[c991ce94765264835695730f13ebc929]
reverse link Context to SortingStrategy--><g id="link_Context_SortingStrategy"><path codeLine="24" d="M262,145.19 C262,167.15 262,190.38 262,209.55 " fill="none" id="Context-backto-SortingStrategy" style="stroke:#181818;stroke-width:1.0;"/><polygon fill="#181818" points="262,132.36,258,138.36,262,144.36,266,138.36,262,132.36" style="stroke:#181818;stroke-width:1.0;"/><text fill="#000000" font-family="sans-serif" font-size="13" lengthAdjust="spacing" textLength="32" x="263" y="175.897">owns</text></g><!--MD5=[3f9b180a9addcf12abf000314c58c0b5]
@startuml

abstract class SortingStrategy {
    +virtual ~SortingStrategy()
    {abstract} +virtual void Sort(vector<int>&) = 0
}

class BubbleSortStrategy {
    +void Sort(vector<int>&) override
}

class QuickSortStrategy {
    +void Sort(vector<int>&) override
}

class Context {
    -unique_ptr<SortingStrategy> strategy
    +Context(unique_ptr<SortingStrategy>)
    +void SetStrategy(unique_ptr<SortingStrategy>)
    +void SortData(vector<int>&)
}

SortingStrategy <|- - BubbleSortStrategy: Inheritance
SortingStrategy <|- - QuickSortStrategy: Inheritance
Context *- - SortingStrategy: owns

@enduml

PlantUML version 1.2022.7(Mon Aug 22 20:01:30 EEST 2022)
(GPL source distribution)
Java Runtime: OpenJDK Runtime Environment
JVM: OpenJDK 64-Bit Server VM
Default Encoding: UTF-8
Language: en
Country: US
--></g></svg>