<?xml version="1.0" encoding="UTF-8" standalone="no"?><svg xmlns="http://www.w3.org/2000/svg" xmlns:xlink="http://www.w3.org/1999/xlink" contentStyleType="text/css" height="392px" preserveAspectRatio="none" style="width:633px;height:392px;background:#FFFFFF;" version="1.1" viewBox="0 0 633 392" width="633px" zoomAndPan="magnify"><defs/><g><!--MD5=[bdd2a941e5a51843f52600bd6b06546d]
class bridge::Implementation--><g id="elem_bridge::Implementation"><rect codeLine="2" fill="#F1F1F1" height="67.0679" id="bridge::Implementation" rx="2.5" ry="2.5" style="stroke:#181818;stroke-width:0.5;" width="182" x="195" y="172"/><ellipse cx="210" cy="188" fill="#A9DCDF" rx="11" ry="11" style="stroke:#181818;stroke-width:1.0;"/><path d="M205.1719,193.75 L208.5156,181.5625 L211.6563,181.5625 L215.0313,193.75 L212.5625,193.75 L211.8281,190.7344 L208.3125,190.7344 L207.5625,193.75 L205.1719,193.75 Z M209.5781,185.7031 L208.8281,188.7031 L211.3438,188.7031 L210.625,185.7031 Q210.4844,185.125 210.3594,184.5781 Q210.2344,184.0156 210.0938,183.4375 Q209.9844,184.0156 209.8438,184.5781 Q209.7031,185.125 209.5781,185.7031 Z " fill="#000000"/><text fill="#000000" font-family="sans-serif" font-size="14" font-style="italic" lengthAdjust="spacing" textLength="150" x="224" y="193.432">bridge::Implementation</text><line style="stroke:#181818;stroke-width:0.5;" x1="196" x2="376" y1="204" y2="204"/><line style="stroke:#181818;stroke-width:0.5;" x1="196" x2="376" y1="212" y2="212"/><ellipse cx="206" cy="227.034" fill="#84BE84" rx="3" ry="3" style="stroke:#038048;stroke-width:1.0;"/><text fill="#000000" font-family="sans-serif" font-size="14" font-style="italic" lengthAdjust="spacing" textLength="99" x="215" y="230.9659">operationImpl()</text></g><!--MD5=[480c4e5567f179c299f0db0650202aaa]
class bridge::ConcreteImplementationA--><g id="elem_bridge::ConcreteImplementationA"><rect codeLine="6" fill="#F1F1F1" height="67.0679" id="bridge::ConcreteImplementationA" rx="2.5" ry="2.5" style="stroke:#181818;stroke-width:0.5;" width="262" x="7" y="318"/><ellipse cx="22" cy="334" fill="#ADD1B2" rx="11" ry="11" style="stroke:#181818;stroke-width:1.0;"/><path d="M21.4688,340.9219 Q19.7188,340.9219 18.5781,340.1875 Q17.4531,339.4375 16.8906,338.0938 Q16.3438,336.7344 16.3438,334.9375 Q16.3438,332.9063 17,331.4531 Q17.6563,330 18.9375,329.2188 Q20.2188,328.4375 22.0938,328.4375 Q22.9844,328.4375 23.6563,328.625 Q24.3281,328.7969 25.0156,329.1406 L24.2031,331.1563 Q23.5781,330.8438 23.0313,330.7188 Q22.5,330.5938 22.0156,330.5938 Q20.8438,330.5938 20.1406,331.125 Q19.4375,331.6563 19.1406,332.6094 Q18.8438,333.5625 18.8438,334.8281 Q18.8438,336.8438 19.5625,337.8125 Q20.2813,338.7656 21.875,338.7656 Q22.4688,338.7656 23.0938,338.6094 Q23.7188,338.4531 24.5469,338.0781 L24.5469,340.2969 Q23.8125,340.6094 23.0156,340.7656 Q22.2344,340.9219 21.4688,340.9219 Z " fill="#000000"/><text fill="#000000" font-family="sans-serif" font-size="14" lengthAdjust="spacing" textLength="230" x="36" y="339.432">bridge::ConcreteImplementationA</text><line style="stroke:#181818;stroke-width:0.5;" x1="8" x2="268" y1="350" y2="350"/><line style="stroke:#181818;stroke-width:0.5;" x1="8" x2="268" y1="358" y2="358"/><ellipse cx="18" cy="373.034" fill="#84BE84" rx="3" ry="3" style="stroke:#038048;stroke-width:1.0;"/><text fill="#000000" font-family="sans-serif" font-size="14" lengthAdjust="spacing" textLength="104" x="27" y="376.9659">operationImpl()</text></g><!--MD5=[e4849029d8a2f74dc2ec40f92b0f5bf6]
class bridge::ConcreteImplementationB--><g id="elem_bridge::ConcreteImplementationB"><rect codeLine="10" fill="#F1F1F1" height="67.0679" id="bridge::ConcreteImplementationB" rx="2.5" ry="2.5" style="stroke:#181818;stroke-width:0.5;" width="262" x="304" y="318"/><ellipse cx="319" cy="334" fill="#ADD1B2" rx="11" ry="11" style="stroke:#181818;stroke-width:1.0;"/><path d="M318.4688,340.9219 Q316.7188,340.9219 315.5781,340.1875 Q314.4531,339.4375 313.8906,338.0938 Q313.3438,336.7344 313.3438,334.9375 Q313.3438,332.9063 314,331.4531 Q314.6563,330 315.9375,329.2188 Q317.2188,328.4375 319.0938,328.4375 Q319.9844,328.4375 320.6563,328.625 Q321.3281,328.7969 322.0156,329.1406 L321.2031,331.1563 Q320.5781,330.8438 320.0313,330.7188 Q319.5,330.5938 319.0156,330.5938 Q317.8438,330.5938 317.1406,331.125 Q316.4375,331.6563 316.1406,332.6094 Q315.8438,333.5625 315.8438,334.8281 Q315.8438,336.8438 316.5625,337.8125 Q317.2813,338.7656 318.875,338.7656 Q319.4688,338.7656 320.0938,338.6094 Q320.7188,338.4531 321.5469,338.0781 L321.5469,340.2969 Q320.8125,340.6094 320.0156,340.7656 Q319.2344,340.9219 318.4688,340.9219 Z " fill="#000000"/><text fill="#000000" font-family="sans-serif" font-size="14" lengthAdjust="spacing" textLength="230" x="333" y="339.432">bridge::ConcreteImplementationB</text><line style="stroke:#181818;stroke-width:0.5;" x1="305" x2="565" y1="350" y2="350"/><line style="stroke:#181818;stroke-width:0.5;" x1="305" x2="565" y1="358" y2="358"/><ellipse cx="315" cy="373.034" fill="#84BE84" rx="3" ry="3" style="stroke:#038048;stroke-width:1.0;"/><text fill="#000000" font-family="sans-serif" font-size="14" lengthAdjust="spacing" textLength="104" x="324" y="376.9659">operationImpl()</text></g><!--MD5=[b5ef129601795ce64603b54c6f08d5f5]
class bridge::Abstraction--><g id="elem_bridge::Abstraction"><rect codeLine="14" fill="#F1F1F1" height="86.1358" id="bridge::Abstraction" rx="2.5" ry="2.5" style="stroke:#181818;stroke-width:0.5;" width="233" x="326.5" y="7"/><ellipse cx="378.25" cy="23" fill="#A9DCDF" rx="11" ry="11" style="stroke:#181818;stroke-width:1.0;"/><path d="M373.4219,28.75 L376.7656,16.5625 L379.9063,16.5625 L383.2813,28.75 L380.8125,28.75 L380.0781,25.7344 L376.5625,25.7344 L375.8125,28.75 L373.4219,28.75 Z M377.8281,20.7031 L377.0781,23.7031 L379.5938,23.7031 L378.875,20.7031 Q378.7344,20.125 378.6094,19.5781 Q378.4844,19.0156 378.3438,18.4375 Q378.2344,19.0156 378.0938,19.5781 Q377.9531,20.125 377.8281,20.7031 Z " fill="#000000"/><text fill="#000000" font-family="sans-serif" font-size="14" font-style="italic" lengthAdjust="spacing" textLength="121" x="398.75" y="28.432">bridge::Abstraction</text><line style="stroke:#181818;stroke-width:0.5;" x1="327.5" x2="558.5" y1="39" y2="39"/><rect fill="none" height="6" style="stroke:#C82930;stroke-width:1.0;" width="6" x="334.5" y="51.034"/><text fill="#000000" font-family="sans-serif" font-size="14" lengthAdjust="spacing" textLength="207" x="346.5" y="57.9659">implementor : Implementation</text><line style="stroke:#181818;stroke-width:0.5;" x1="327.5" x2="558.5" y1="66.0679" y2="66.0679"/><ellipse cx="337.5" cy="81.1019" fill="#84BE84" rx="3" ry="3" style="stroke:#038048;stroke-width:1.0;"/><text fill="#000000" font-family="sans-serif" font-size="14" lengthAdjust="spacing" textLength="73" x="346.5" y="85.0339">operation()</text></g><!--MD5=[95958e4fbfc3ea3e6d82d1080d16f28f]
class bridge::RefinedAbstraction--><g id="elem_bridge::RefinedAbstraction"><rect codeLine="19" fill="#F1F1F1" height="67.0679" id="bridge::RefinedAbstraction" rx="2.5" ry="2.5" style="stroke:#181818;stroke-width:0.5;" width="214" x="412" y="172"/><ellipse cx="427" cy="188" fill="#ADD1B2" rx="11" ry="11" style="stroke:#181818;stroke-width:1.0;"/><path d="M426.4688,194.9219 Q424.7188,194.9219 423.5781,194.1875 Q422.4531,193.4375 421.8906,192.0938 Q421.3438,190.7344 421.3438,188.9375 Q421.3438,186.9063 422,185.4531 Q422.6563,184 423.9375,183.2188 Q425.2188,182.4375 427.0938,182.4375 Q427.9844,182.4375 428.6563,182.625 Q429.3281,182.7969 430.0156,183.1406 L429.2031,185.1563 Q428.5781,184.8438 428.0313,184.7188 Q427.5,184.5938 427.0156,184.5938 Q425.8438,184.5938 425.1406,185.125 Q424.4375,185.6563 424.1406,186.6094 Q423.8438,187.5625 423.8438,188.8281 Q423.8438,190.8438 424.5625,191.8125 Q425.2813,192.7656 426.875,192.7656 Q427.4688,192.7656 428.0938,192.6094 Q428.7188,192.4531 429.5469,192.0781 L429.5469,194.2969 Q428.8125,194.6094 428.0156,194.7656 Q427.2344,194.9219 426.4688,194.9219 Z " fill="#000000"/><text fill="#000000" font-family="sans-serif" font-size="14" lengthAdjust="spacing" textLength="182" x="441" y="193.432">bridge::RefinedAbstraction</text><line style="stroke:#181818;stroke-width:0.5;" x1="413" x2="625" y1="204" y2="204"/><line style="stroke:#181818;stroke-width:0.5;" x1="413" x2="625" y1="212" y2="212"/><ellipse cx="423" cy="227.034" fill="#84BE84" rx="3" ry="3" style="stroke:#038048;stroke-width:1.0;"/><text fill="#000000" font-family="sans-serif" font-size="14" lengthAdjust="spacing" textLength="73" x="432" y="230.9659">operation()</text></g><!--MD5=[2c3663fef843dc8fd59ec92d3d1335f0]
reverse link bridge::Implementation to bridge::ConcreteImplementationA--><g id="link_bridge::Implementation_bridge::ConcreteImplementationA"><path codeLine="23" d="M237.45,253.74 C215.93,274.67 191.15,298.79 171.71,317.7 " fill="none" id="bridge::Implementation-backto-bridge::ConcreteImplementationA" style="stroke:#181818;stroke-width:1.0;"/><polygon fill="none" points="232.2,249.11,251.42,240.18,241.96,259.14,232.2,249.11" style="stroke:#181818;stroke-width:1.0;"/><text fill="#000000" font-family="sans-serif" font-size="13" lengthAdjust="spacing" textLength="71" x="222" y="283.897">implements</text></g><!--MD5=[15186e1ef55d3b03116950f103f8add8]
reverse link bridge::Implementation to bridge::ConcreteImplementationB--><g id="link_bridge::Implementation_bridge::ConcreteImplementationB"><path codeLine="24" d="M334.88,253.74 C356.54,274.67 381.49,298.79 401.07,317.7 " fill="none" id="bridge::Implementation-backto-bridge::ConcreteImplementationB" style="stroke:#181818;stroke-width:1.0;"/><polygon fill="none" points="330.33,259.11,320.81,240.18,340.06,249.04,330.33,259.11" style="stroke:#181818;stroke-width:1.0;"/><text fill="#000000" font-family="sans-serif" font-size="13" lengthAdjust="spacing" textLength="71" x="371" y="283.897">implements</text></g><!--MD5=[99673d08fbdc54f598a5929ad8f200c5]
reverse link bridge::Abstraction to bridge::RefinedAbstraction--><g id="link_bridge::Abstraction_bridge::RefinedAbstraction"><path codeLine="26" d="M473.27,112.13 C483.31,132.41 494.1,154.21 502.68,171.53 " fill="none" id="bridge::Abstraction-backto-bridge::RefinedAbstraction" style="stroke:#181818;stroke-width:1.0;"/><polygon fill="none" points="466.57,115.38,463.97,94.35,479.12,109.17,466.57,115.38" style="stroke:#181818;stroke-width:1.0;"/><text fill="#000000" font-family="sans-serif" font-size="13" lengthAdjust="spacing" textLength="45" x="488" y="137.897">inherits</text></g><!--MD5=[1dd176afff0da3951a36efc831654429]
reverse link bridge::Abstraction to bridge::Implementation--><g id="link_bridge::Abstraction_bridge::Implementation"><path codeLine="28" d="M389.96,102.86 C366.74,125.56 340.18,151.53 319.72,171.53 " fill="none" id="bridge::Abstraction-backto-bridge::Implementation" style="stroke:#181818;stroke-width:1.0;"/><polygon fill="none" points="398.68,94.35,391.594,95.6872,390.1029,102.7424,397.1889,101.4053,398.68,94.35" style="stroke:#181818;stroke-width:1.0;"/><text fill="#000000" font-family="sans-serif" font-size="13" lengthAdjust="spacing" textLength="27" x="371" y="137.897">uses</text></g><!--MD5=[6568b958c73bf54e194912dc4a224d09]
@startuml

abstract class "bridge::Implementation" {
    + {abstract} operationImpl()
}

class "bridge::ConcreteImplementationA" {
    +operationImpl()
}

class "bridge::ConcreteImplementationB" {
    +operationImpl()
}

abstract class "bridge::Abstraction" {
    + operation()
    - implementor : Implementation
}

class "bridge::RefinedAbstraction" {
    + operation()
}

"bridge::Implementation" <|- - "bridge::ConcreteImplementationA" : implements
"bridge::Implementation" <|- - "bridge::ConcreteImplementationB" : implements

"bridge::Abstraction" <|- - "bridge::RefinedAbstraction" : inherits

"bridge::Abstraction" o- - "bridge::Implementation" : uses

@enduml

PlantUML version 1.2022.7(Mon Aug 22 20:01:30 EEST 2022)
(GPL source distribution)
Java Runtime: OpenJDK Runtime Environment
JVM: OpenJDK 64-Bit Server VM
Default Encoding: UTF-8
Language: en
Country: US
--></g></svg>