<?xml version="1.0" encoding="UTF-8" standalone="no"?><svg xmlns="http://www.w3.org/2000/svg" xmlns:xlink="http://www.w3.org/1999/xlink" contentStyleType="text/css" height="157px" preserveAspectRatio="none" style="width:461px;height:157px;background:#FFFFFF;" version="1.1" viewBox="0 0 461 157" width="461px" zoomAndPan="magnify"><defs/><g><!--MD5=[f523249871f9598003645a227a125106]
class TightlyCoupledType--><g id="elem_TightlyCoupledType"><rect codeLine="2" fill="#F1F1F1" height="143.3396" id="TightlyCoupledType" rx="2.5" ry="2.5" style="stroke:#181818;stroke-width:0.5;" width="240" x="7" y="7"/><ellipse cx="55.75" cy="23" fill="#ADD1B2" rx="11" ry="11" style="stroke:#181818;stroke-width:1.0;"/><path d="M55.2188,29.9219 Q53.4688,29.9219 52.3281,29.1875 Q51.2031,28.4375 50.6406,27.0938 Q50.0938,25.7344 50.0938,23.9375 Q50.0938,21.9063 50.75,20.4531 Q51.4063,19 52.6875,18.2188 Q53.9688,17.4375 55.8438,17.4375 Q56.7344,17.4375 57.4063,17.625 Q58.0781,17.7969 58.7656,18.1406 L57.9531,20.1563 Q57.3281,19.8438 56.7813,19.7188 Q56.25,19.5938 55.7656,19.5938 Q54.5938,19.5938 53.8906,20.125 Q53.1875,20.6563 52.8906,21.6094 Q52.5938,22.5625 52.5938,23.8281 Q52.5938,25.8438 53.3125,26.8125 Q54.0313,27.7656 55.625,27.7656 Q56.2188,27.7656 56.8438,27.6094 Q57.4688,27.4531 58.2969,27.0781 L58.2969,29.2969 Q57.5625,29.6094 56.7656,29.7656 Q55.9844,29.9219 55.2188,29.9219 Z " fill="#000000"/><text fill="#000000" font-family="sans-serif" font-size="14" lengthAdjust="spacing" textLength="134" x="76.25" y="28.432">TightlyCoupledType</text><line style="stroke:#181818;stroke-width:0.5;" x1="8" x2="246" y1="39" y2="39"/><rect fill="none" height="6" style="stroke:#C82930;stroke-width:1.0;" width="6" x="15" y="51.034"/><text fill="#000000" font-family="sans-serif" font-size="14" lengthAdjust="spacing" textLength="214" x="27" y="57.9659">implType : ImplementationType</text><text fill="#000000" font-family="sans-serif" font-size="14" lengthAdjust="spacing" textLength="209" x="27" y="77.0339">uses --&gt; "ImplementationType"</text><line style="stroke:#181818;stroke-width:0.5;" x1="8" x2="246" y1="85.1358" y2="85.1358"/><ellipse cx="18" cy="100.1698" fill="#84BE84" rx="3" ry="3" style="stroke:#038048;stroke-width:1.0;"/><text fill="#000000" font-family="sans-serif" font-size="14" lengthAdjust="spacing" textLength="73" x="27" y="104.1018">operation()</text><rect fill="#F24D5C" height="6" style="stroke:#C82930;stroke-width:1.0;" width="6" x="15" y="116.2377"/><text fill="#000000" font-family="sans-serif" font-size="14" lengthAdjust="spacing" textLength="113" x="27" y="123.1697">operationImplA()</text><rect fill="#F24D5C" height="6" style="stroke:#C82930;stroke-width:1.0;" width="6" x="15" y="135.3056"/><text fill="#000000" font-family="sans-serif" font-size="14" lengthAdjust="spacing" textLength="113" x="27" y="142.2376">operationImplB()</text></g><!--MD5=[d40b155f8ee08e2940a9cc7a362db45e]
class ImplementationType--><g id="elem_ImplementationType"><rect codeLine="9" fill="#F1F1F1" height="86.1358" id="ImplementationType" rx="2.5" ry="2.5" style="stroke:#181818;stroke-width:0.5;" width="172" x="282" y="35.5"/><ellipse cx="297" cy="51.5" fill="#EB937F" rx="11" ry="11" style="stroke:#181818;stroke-width:1.0;"/><path d="M293.3594,58 L293.3594,45.8594 L301.0156,45.8594 L301.0156,47.9844 L295.7344,47.9844 L295.7344,50.6406 L300.75,50.6406 L300.75,52.7656 L295.7344,52.7656 L295.7344,55.875 L301.0156,55.875 L301.0156,58 L293.3594,58 Z " fill="#000000"/><text fill="#000000" font-family="sans-serif" font-size="14" lengthAdjust="spacing" textLength="140" x="311" y="56.932">ImplementationType</text><line style="stroke:#181818;stroke-width:0.5;" x1="283" x2="453" y1="67.5" y2="67.5"/><text fill="#000000" font-family="sans-serif" font-size="14" lengthAdjust="spacing" textLength="45" x="288" y="86.4659">TypeA,</text><text fill="#000000" font-family="sans-serif" font-size="14" lengthAdjust="spacing" textLength="41" x="288" y="105.5339">TypeB</text><line style="stroke:#181818;stroke-width:0.5;" x1="283" x2="453" y1="113.6358" y2="113.6358"/></g><!--MD5=[37b43b7b673ff74b841632369e1ab815]
@startuml

class "TightlyCoupledType" {
    - implType : ImplementationType
    + operation()
    - operationImplA()
    - operationImplB()
}

enum "ImplementationType" {
    TypeA,
    TypeB
}

"TightlyCoupledType" : uses - -> "ImplementationType"

@enduml

PlantUML version 1.2022.7(Mon Aug 22 20:01:30 EEST 2022)
(GPL source distribution)
Java Runtime: OpenJDK Runtime Environment
JVM: OpenJDK 64-Bit Server VM
Default Encoding: UTF-8
Language: en
Country: US
--></g></svg>